<svg width="72" height="72" viewBox="0 0 72 72" fill="none" xmlns="http://www.w3.org/2000/svg">
<path d="M13.9677 30.8779C13.1818 28.1324 18.5423 31.2097 17.47 26.7969C16.8997 25.9149 14.8717 27.1845 14.8551 25.3884C17.5936 17.8952 14.4178 8.23878 12.1943 0.265192C13.4788 1.627 16.4984 0.719753 17.4971 2.87632C19.3938 6.25219 17.7956 13.7204 23.9363 12.1546C29.911 12.3245 35.7841 15.8177 39.7054 20.3772C48.5517 20.0334 45.8999 8.32916 54.7654 7.32203C56.3975 8.36397 57.0739 10.1764 57.0897 11.9665C57.0844 16.8852 51.8186 19.6579 52.9426 24.5376C55.0555 24.8712 57.4629 24.4058 59.1467 25.9147C63.1197 30.9412 68.5644 35.6157 71.4239 40.0153C69.055 41.61 65.5586 40.7784 63.9046 42.8591C65.5884 44.368 63.372 47.3669 66.5683 47.8609C67.1001 50.0694 64.4798 51.1237 62.8643 51.8779C63.3006 54.9528 73.2823 54.5691 68.6113 57.5537C68.3987 59.9316 65.5627 57.3334 64.6296 57.4433C64.5687 56.7344 64.3599 56.0462 64.0166 55.4231C57.3376 56.5641 50.9504 54.4536 44.3439 55.4104C42.5936 60.8074 47.6483 65.3367 47.5467 71.1157C45.969 70.5373 45.7946 67.3438 44.2369 66.1082L39.6237 64.647C36.6206 69.8063 31.8014 66.4834 28.3314 69.2387C28.2971 68.118 29.4257 66.2624 29.0516 64.8059C30.6321 61.1144 25.0646 62.2463 25.3806 58.9918C23.011 58.1246 20.5466 60.5857 18.1445 61.0443C17.6014 63.7553 14.866 64.5503 14.7893 67.1818C13.3343 69.33 12.6937 65.549 11.3062 65.6877C14.0288 61.3163 18.8021 57.4707 19.4121 52.0987C16.1034 51.3421 21.0277 48.8885 17.5831 48.5238L14.9628 49.5781C15.3263 48.5924 15.2202 47.6619 14.0573 47.2317C12.1746 47.7003 10.3534 48.389 8.63148 49.2834C8.79531 48.2241 9.83784 46.5914 8.74627 45.2978L5.03177 45.062C8.51755 44.0968 11.1054 41.9122 12.4616 38.8173C11.6407 37.401 9.342 38.7933 9.16233 38.0626C9.89912 37.8818 11.766 37.6682 12.1261 36.6797C9.35076 33.8773 4.31522 31.1407 0.581466 31.5681C1.90517 31.6094 0.543696 30.4447 0.76453 29.8455C5.08697 30.1011 9.76434 31.3607 13.9677 30.8779Z" fill="url(#paint0_radial_254_412)"/>
<defs>
<radialGradient id="paint0_radial_254_412" cx="0" cy="0" r="1" gradientUnits="userSpaceOnUse" gradientTransform="translate(33.9867 37.3769) rotate(127.925) scale(36.5 40)">
<stop stop-color="#F5443E"/>
<stop offset="1" stop-color="#DF130D"/>
</radialGradient>
</defs>
</svg>
