<svg width="18" height="16" viewBox="0 0 18 16" fill="none" xmlns="http://www.w3.org/2000/svg">
<path d="M17.667 2.62436C17.029 2.9077 16.3437 3.09836 15.6243 3.18436C16.359 2.74436 16.9223 2.0477 17.1877 1.21703C16.501 1.62436 15.7397 1.92036 14.929 2.08036C14.2803 1.38903 13.3563 0.957031 12.3337 0.957031C10.3697 0.957031 8.77768 2.5497 8.77768 4.51303C8.77768 4.7917 8.80968 5.0637 8.86968 5.32303C5.91434 5.17503 3.29434 3.75903 1.53967 1.60703C1.23434 2.13236 1.05901 2.74303 1.05901 3.3957C1.05901 4.62903 1.68634 5.7177 2.64034 6.35503C2.05767 6.33636 1.50901 6.17636 1.02967 5.91036C1.02967 5.9257 1.02967 5.9397 1.02967 5.95503C1.02967 7.67836 2.25501 9.1157 3.88234 9.4417C3.58434 9.52303 3.26967 9.56636 2.94501 9.56636C2.71634 9.56636 2.49301 9.5437 2.27634 9.50303C2.72901 10.9157 4.04234 11.9444 5.59834 11.973C4.38168 12.927 2.84834 13.4957 1.18167 13.4957C0.895008 13.4957 0.611675 13.479 0.333008 13.4457C1.90701 14.4544 3.77567 15.043 5.78434 15.043C12.3257 15.043 15.9017 9.62436 15.9017 4.92503C15.9017 4.77103 15.8983 4.6177 15.8917 4.46503C16.587 3.96303 17.1903 3.33703 17.667 2.62436Z" fill="#0A0908"/>
</svg>
